# xmcd CD database file
#
# Track frame offsets:
#	150
#	11225
#	20640
#	32352
#	43620
#	54457
#	63272
#	76677
#	85202
#	96100
#	103820
#	109830
#	121107
#	132305
#	144280
#	154520
#
# Disc length: 2179 seconds
#
# Revision: 0
# Processed by: cddbd v1.4PL0 Copyright (c) Steve Scherf et al.
# Submitted via: Feurio! 1.63 - http://www.feurio.com
#
DISCID=c2088110
DTITLE=Johnny Cash - Two timin´ woman
DYEAR=1900
DGENRE=country
TTITLE0=Cry ! Cry ! Cry !
TTITLE1=Luther played the boogie
TTITLE2=So doggone lonesome
TTITLE3=Mean eyed cat
TTITLE4=Wide open road
TTITLE5=Two timin´ woman
TTITLE6=Tennessee flat top box
TTITLE7=A little at a time
TTITLE8=Belshazar
TTITLE9=If the good lord´s willing
TTITLE10=You tell me
TTITLE11=Oh ! Lonesome me
TTITLE12=Don´t make me go
TTITLE13=Home of the blues
TTITLE14=Straight a´s in love
TTITLE15=Blue train
EXTD=
EXTT0=
EXTT1=
EXTT2=
EXTT3=
EXTT4=
EXTT5=
EXTT6=
EXTT7=
EXTT8=
EXTT9=
EXTT10=
EXTT11=
EXTT12=
EXTT13=
EXTT14=
EXTT15=
PLAYORDER=
